<?xml version="1.0" encoding="UTF-8"?>
<!DOCTYPE svg PUBLIC "-//W3C//DTD SVG 1.1//EN" "http://www.w3.org/Graphics/SVG/1.1/DTD/svg11.dtd">
<!-- Creator: CorelDRAW -->
<svg xmlns="http://www.w3.org/2000/svg" xml:space="preserve" width="500px" height="500px" style="shape-rendering:geometricPrecision; text-rendering:geometricPrecision; image-rendering:optimizeQuality; fill-rule:evenodd; clip-rule:evenodd"
viewBox="0 0 500 500"
 xmlns:xlink="http://www.w3.org/1999/xlink">
 <defs>
  <style type="text/css">
   <![CDATA[
    .str0 {stroke:#1F1A17;stroke-width:5.78701}
    .fil1 {fill:#DEDEDD}
    .fil2 {fill:#1F1A17;fill-rule:nonzero}
    .fil0 {fill:#DEDEDD}
   ]]>
  </style>
 </defs>
 <g id="Layer_x0020_1">
  <metadata id="CorelCorpID_0Corel-Layer"/>
  <path class="fil0 str0" d="M301.776 18.6575l91.3386 144.582 91.3386 144.584 -57.3673 0c-14.5173,-61.2173 -69.5402,-106.774 -135.19,-106.774 -7.63661,0 -15.1256,0.625197 -22.428,1.81102l0 -60.4909 -45.8457 0 78.1539 -123.712z"/>
  <path class="fil0 str0" d="M17.1626 394.675l146.975 0c-7.19528,-16.7843 -11.1846,-35.2673 -11.1846,-54.6823 0,-69.087 50.4531,-126.403 116.515,-137.13l0 -60.4925 -252.305 0 0 252.305z"/>
  <path class="fil0 str0" d="M430.839 339.993c0,-76.7232 -62.2197,-138.943 -138.943,-138.943 -76.7228,0 -138.943,62.2197 -138.943,138.943 0,76.7228 62.2197,138.943 138.943,138.943 76.7232,0 138.943,-62.2197 138.943,-138.943z"/>
  <rect class="fil1" x="105.68" y="245.352" width="210.451" height="78.4287"/>
  <path class="fil2" d="M123.841 272.028l0 -2.2378c0.254331,0.227953 0.559449,0.42874 0.91811,0.609843 0.358268,0.181102 0.736614,0.335433 1.13031,0.459055 0.397244,0.123622 0.794882,0.220079 1.19213,0.28937 0.401181,0.065748 0.77126,0.1 1.10709,0.1 1.1689,0 2.04055,-0.215748 2.61929,-0.651575 0.574803,-0.432283 0.864173,-1.05354 0.864173,-1.86772 0,-0.439764 -0.0964567,-0.817717 -0.288976,-1.14173 -0.192913,-0.324016 -0.459449,-0.62126 -0.794882,-0.887402 -0.33937,-0.269685 -0.740551,-0.524409 -1.20354,-0.767717 -0.466535,-0.24685 -0.964567,-0.505118 -1.50079,-0.775591 -0.562992,-0.285433 -1.09173,-0.57874 -1.58189,-0.872047 -0.489764,-0.293307 -0.914173,-0.617323 -1.27677,-0.972047 -0.362992,-0.355118 -0.644094,-0.756299 -0.852756,-1.20394 -0.208268,-0.447244 -0.312598,-0.972047 -0.312598,-1.57402 0,-0.740551 0.161811,-1.3811 0.485827,-1.92874 0.324016,-0.548031 0.751969,-0.995276 1.27717,-1.35039 0.52874,-0.354724 1.13031,-0.617323 1.80512,-0.790551 0.67126,-0.174016 1.36181,-0.258661 2.06024,-0.258661 1.59724,0 2.7626,0.188976 3.49528,0.574803l0 2.1374c-0.956693,-0.663386 -2.1874,-0.995276 -3.68425,-0.995276 -0.416535,0 -0.829528,0.042126 -1.24646,0.130709 -0.412598,0.0850394 -0.783071,0.227559 -1.10669,0.420866 -0.324409,0.19685 -0.586614,0.451181 -0.790945,0.759843 -0.204724,0.308661 -0.304724,0.682677 -0.304724,1.13031 0,0.412992 0.0771654,0.771654 0.231102,1.07283 0.154724,0.300787 0.382283,0.574409 0.682677,0.825591 0.301181,0.24685 0.67126,0.490157 1.10354,0.72126 0.43189,0.235433 0.933465,0.490157 1.49685,0.77126 0.582283,0.285827 1.13031,0.586614 1.65118,0.90315 0.520866,0.316142 0.975984,0.667323 1.36575,1.04961 0.393701,0.385433 0.702362,0.809843 0.933858,1.27677 0.231102,0.470866 0.343307,1.00315 0.343307,1.60512 0,0.798425 -0.154331,1.47756 -0.466535,2.02913 -0.312598,0.555512 -0.737008,1.00669 -1.26575,1.35039 -0.532283,0.34685 -1.14567,0.598031 -1.83661,0.751969 -0.694488,0.154331 -1.42717,0.23189 -2.19488,0.23189 -0.254724,0 -0.57126,-0.019685 -0.948819,-0.061811 -0.374409,-0.042126 -0.760236,-0.100394 -1.15354,-0.181102 -0.389764,-0.0771654 -0.760236,-0.177559 -1.11142,-0.293307 -0.351181,-0.115748 -0.632283,-0.24685 -0.840551,-0.389764l0.000393701 0z"/>
  <path id="_1" class="fil2" d="M141.483 272.954c-1.70945,0 -3.0748,-0.540551 -4.09724,-1.62087 -1.01811,-1.08031 -1.53189,-2.51535 -1.53189,-4.30157 0,-1.94449 0.532677,-3.46063 1.5937,-4.5563 1.06457,-1.09173 2.5,-1.63583 4.30945,-1.63583 1.72441,0 3.07087,0.52874 4.03898,1.5937 0.96811,1.06102 1.45039,2.53425 1.45039,4.41732 0,1.84803 -0.520866,3.32559 -1.5626,4.43701 -1.04528,1.11102 -2.44567,1.66654 -4.20118,1.66654l0.000393701 0zm0.134646 -10.5559c-1.18819,0 -2.12953,0.405118 -2.82402,1.21496 -0.694488,0.810236 -1.04173,1.92559 -1.04173,3.35276 0,1.36969 0.351181,2.45 1.05315,3.24055 0.701969,0.790945 1.63976,1.18858 2.8126,1.18858 1.2,0 2.12205,-0.389764 2.76614,-1.16496 0.644094,-0.775591 0.964567,-1.87874 0.964567,-3.31024 0,-1.44646 -0.320472,-2.56142 -0.964567,-3.34488 -0.644094,-0.783071 -1.56614,-1.17677 -2.76614,-1.17677z"/>
  <path id="_12" class="fil2" d="M166.645 272.683l-1.85157 0 0 -6.64724c0,-1.28071 -0.200394,-2.20669 -0.594094,-2.77756 -0.397244,-0.574803 -1.06102,-0.860236 -1.99488,-0.860236 -0.790551,0 -1.46575,0.362598 -2.01772,1.08425 -0.555118,0.725197 -0.833465,1.58898 -0.833465,2.6l0 6.60118 -1.85157 0 0 -6.87087c0,-2.27638 -0.879528,-3.41457 -2.63504,-3.41457 -0.814173,0 -1.48189,0.33937 -2.01024,1.02244 -0.528346,0.682677 -0.790551,1.57047 -0.790551,2.66181l0 6.60118 -1.85591 0 0 -11.574 1.85591 0 0 1.83228 0.0464567 0c0.817717,-1.40433 2.01772,-2.10276 3.59173,-2.10276 0.790945,0 1.4815,0.220079 2.06772,0.659843 0.590551,0.440157 0.991732,1.0189 1.21142,1.73583 0.856693,-1.59685 2.1374,-2.39567 3.84252,-2.39567 2.54646,0 3.81929,1.57047 3.81929,4.71102l0 7.13346 0 -0.000393701z"/>
  <path id="_123" class="fil2" d="M179.45 267.359l-8.17126 0c0.0311024,1.28858 0.377953,2.28386 1.04173,2.98583 0.663386,0.698425 1.57402,1.04961 2.73543,1.04961 1.30433,0 2.5,-0.428346 3.59173,-1.28858l0 1.74016c-1.01457,0.740551 -2.36102,1.10709 -4.0315,1.10709 -1.63583,0 -2.92087,-0.524803 -3.85433,-1.57441 -0.937402,-1.05315 -1.40472,-2.53071 -1.40472,-4.43661 0,-1.80157 0.513386,-3.26772 1.53189,-4.40197 1.02244,-1.13425 2.2878,-1.70157 3.80433,-1.70157 1.51614,0 2.68504,0.490157 3.51457,1.47008 0.829134,0.975984 1.24213,2.33819 1.24213,4.07756l0 0.972441 0 0.000393701zm-1.89803 -1.57047c-0.00787402,-1.0689 -0.266142,-1.90197 -0.771654,-2.5 -0.509449,-0.594094 -1.21496,-0.891339 -2.12205,-0.891339 -0.872047,0 -1.61654,0.312598 -2.22598,0.937402 -0.609449,0.625197 -0.987402,1.44291 -1.13031,2.45354l6.25 0 0 0.000393701z"/>
  <path id="_1234" class="fil2" d="M188.848 272.683l0 -16.2075 4.47559 0c5.70984,0 8.5689,2.6311 8.5689,7.90118 0,2.5 -0.794882,4.50984 -2.38071,6.03031 -1.58543,1.51614 -3.70748,2.27598 -6.36929,2.27598l-4.29409 0 -0.000393701 0zm1.89843 -14.4909l0 12.774 2.4189 0c2.12598,0 3.77717,-0.57126 4.96142,-1.70945 1.18425,-1.13819 1.77441,-2.75039 1.77441,-4.83819 0,-4.15118 -2.20669,-6.22677 -6.62402,-6.22677l-2.53071 0 0 0.000393701z"/>
  <path id="_12345" class="fil2" d="M214.129 267.359l-8.17126 0c0.0311024,1.28858 0.377953,2.28386 1.04173,2.98583 0.663386,0.698425 1.57402,1.04961 2.73543,1.04961 1.30433,0 2.5,-0.428346 3.59173,-1.28858l0 1.74016c-1.01457,0.740551 -2.36102,1.10709 -4.0315,1.10709 -1.63583,0 -2.92087,-0.524803 -3.85433,-1.57441 -0.937402,-1.05315 -1.40472,-2.53071 -1.40472,-4.43661 0,-1.80157 0.513386,-3.26772 1.53189,-4.40197 1.02244,-1.13425 2.2878,-1.70157 3.80433,-1.70157 1.51614,0 2.68504,0.490157 3.51457,1.47008 0.829134,0.975984 1.24213,2.33819 1.24213,4.07756l0 0.972441 0 0.000393701zm-1.89803 -1.57047c-0.00787402,-1.0689 -0.266142,-1.90197 -0.771654,-2.5 -0.509449,-0.594094 -1.21496,-0.891339 -2.12205,-0.891339 -0.872047,0 -1.61654,0.312598 -2.22598,0.937402 -0.609449,0.625197 -0.987402,1.44291 -1.13031,2.45354l6.25 0 0 0.000393701z"/>
  <path id="_123456" class="fil2" d="M216.235 272.267l0 -1.99055c1.00709,0.744488 2.11811,1.1189 3.33346,1.1189 1.62795,0 2.44213,-0.543701 2.44213,-1.62795 0,-0.308661 -0.0692913,-0.570866 -0.208268,-0.783465 -0.142913,-0.215748 -0.327953,-0.404724 -0.567323,-0.570866 -0.235433,-0.165748 -0.516929,-0.316142 -0.837008,-0.447244 -0.320472,-0.131102 -0.663386,-0.270079 -1.03386,-0.412992 -0.513386,-0.204331 -0.961024,-0.409055 -1.35039,-0.617323 -0.385827,-0.204724 -0.709843,-0.439764 -0.972441,-0.698425 -0.258268,-0.262205 -0.455118,-0.555118 -0.586614,-0.887008 -0.130709,-0.33189 -0.196457,-0.721654 -0.196457,-1.16496 0,-0.544094 0.123622,-1.02244 0.370472,-1.44331 0.250394,-0.416535 0.582283,-0.767717 0.995276,-1.04921 0.412598,-0.28189 0.887402,-0.498031 1.41969,-0.640551 0.52874,-0.142913 1.08031,-0.212598 1.64331,-0.212598 1.00315,0 1.89843,0.174016 2.68898,0.517323l0 1.87874c-0.848425,-0.559449 -1.82874,-0.837008 -2.93583,-0.837008 -0.34685,0 -0.659449,0.0385827 -0.941339,0.119685 -0.277559,0.0771654 -0.517323,0.188976 -0.717717,0.33189 -0.19685,0.142913 -0.351181,0.316142 -0.462992,0.512992 -0.107874,0.200394 -0.161811,0.420472 -0.161811,0.663386 0,0.301181 0.053937,0.551575 0.161811,0.756299 0.111811,0.204331 0.270079,0.385827 0.482283,0.543701 0.208268,0.158268 0.466535,0.301181 0.767717,0.428346 0.301181,0.127559 0.644094,0.266535 1.03031,0.416535 0.509449,0.19685 0.972441,0.401575 1.37717,0.605906 0.405118,0.208268 0.752362,0.440157 1.04173,0.702362 0.285433,0.258268 0.505512,0.559449 0.659843,0.898425 0.154331,0.33937 0.231102,0.740945 0.231102,1.20787 0,0.574803 -0.127165,1.07244 -0.377559,1.49331 -0.254724,0.420472 -0.590551,0.77126 -1.01102,1.04921 -0.424409,0.28189 -0.91063,0.48622 -1.45827,0.625197 -0.551575,0.135433 -1.12638,0.200787 -1.73228,0.200787 -1.18858,0 -2.22244,-0.227953 -3.09409,-0.687008l0 -0.000393701z"/>
  <path id="_1234567" class="fil2" d="M234.646 272.151c-0.887402,0.535827 -1.94449,0.802756 -3.16339,0.802756 -1.65118,0 -2.98228,-0.536614 -3.99685,-1.60866 -1.01102,-1.07283 -1.52008,-2.46575 -1.52008,-4.17795 0,-1.9063 0.548031,-3.4374 1.64016,-4.59528 1.09173,-1.15315 2.55,-1.73228 4.37441,-1.73228 1.0189,0 1.91378,0.188976 2.68898,0.563386l0 1.89803c-0.859843,-0.601575 -1.77835,-0.902756 -2.75827,-0.902756 -1.18031,0 -2.15276,0.424409 -2.90906,1.27283 -0.756299,0.845276 -1.13819,1.95984 -1.13819,3.3374 0,1.35787 0.358661,2.42677 1.0689,3.20984 0.713386,0.783071 1.66654,1.17677 2.86614,1.17677 1.01102,0 1.95984,-0.335433 2.84724,-1.00669l0 1.76299 0 -0.000393701z"/>
  <path id="_12345678" class="fil2" d="M243.484 262.984c-0.324016,-0.24685 -0.790551,-0.370472 -1.4,-0.370472 -0.794882,0 -1.45472,0.370472 -1.98701,1.1189 -0.52874,0.744882 -0.794882,1.76299 -0.794882,3.05157l0 5.89882 -1.85591 0 0 -11.574 1.85591 0 0 2.38425 0.0464567 0c0.262205,-0.814173 0.663386,-1.44685 1.20748,-1.90197 0.544094,-0.459449 1.15,-0.687008 1.82126,-0.687008 0.48189,0 0.848425,0.053937 1.10669,0.158268l0 1.92126 0 0.000393701z"/>
  <path id="_123456789" class="fil2" d="M246.444 258.17c-0.33189,0 -0.613386,-0.111811 -0.844882,-0.33937 -0.235433,-0.224016 -0.351181,-0.509449 -0.351181,-0.856693 0,-0.34685 0.115748,-0.636614 0.351181,-0.864173 0.231102,-0.231102 0.512992,-0.347244 0.844882,-0.347244 0.33937,0 0.629134,0.116142 0.86811,0.347244 0.235433,0.227559 0.354724,0.517323 0.354724,0.864173 0,0.33189 -0.119291,0.613386 -0.354724,0.845276 -0.238976,0.235039 -0.52874,0.351181 -0.86811,0.351181l0 -0.000393701zm0.906693 14.5138l-1.85591 0 0 -11.574 1.85591 0 0 11.574z"/>
  <path id="_12345678910" class="fil2" d="M253.003 271.009l-0.0464567 0 0 6.99843 -1.85591 0 0 -16.898 1.85591 0 0 2.03346 0.0464567 0c0.91063,-1.53543 2.24528,-2.30354 4.00039,-2.30354 1.48898,0 2.65433,0.517323 3.49173,1.55512 0.837008,1.03386 1.25354,2.42244 1.25354,4.1626 0,1.93701 -0.470472,3.4874 -1.41181,4.65276 -0.941339,1.16142 -2.22992,1.74409 -3.86575,1.74409 -1.50039,0 -2.65827,-0.648425 -3.46811,-1.94488zm-0.0464567 -4.66811l0 1.61654c0,0.956693 0.308268,1.77087 0.933465,2.43819 0.62126,0.667717 1.40827,0.999606 2.36496,0.999606 1.12283,0 2.00236,-0.428346 2.63898,-1.28858 0.636614,-0.860236 0.956693,-2.05276 0.956693,-3.58425 0,-1.28858 -0.297244,-2.29528 -0.895276,-3.02835 -0.593701,-0.729134 -1.40039,-1.09567 -2.41496,-1.09567 -1.08031,0 -1.94449,0.374409 -2.6,1.12283 -0.655906,0.751969 -0.983858,1.68976 -0.983858,2.82008l0 -0.000393701z"/>
  <path id="_1234567891011" class="fil2" d="M270.078 272.572c-0.435827,0.238976 -1.01457,0.358661 -1.72874,0.358661 -2.02913,0 -3.03976,-1.13031 -3.03976,-3.3874l0 -6.85157 -1.99094 0 0 -1.58189 1.99094 0 0 -2.82402 1.85157 -0.601969 0 3.42598 2.91654 0 0 1.58189 -2.91654 0 0 6.52402c0,0.775591 0.131102,1.32717 0.397244,1.65906 0.262598,0.33189 0.698425,0.498031 1.30787,0.498031 0.470866,0 0.872047,-0.127559 1.21142,-0.382283l0 1.58189 0.000393701 -0.000393701z"/>
  <path id="_123456789101112" class="fil2" d="M273.5 258.17c-0.33189,0 -0.613386,-0.111811 -0.844882,-0.33937 -0.235433,-0.224016 -0.351181,-0.509449 -0.351181,-0.856693 0,-0.34685 0.115748,-0.636614 0.351181,-0.864173 0.231102,-0.231102 0.512992,-0.347244 0.844882,-0.347244 0.33937,0 0.629134,0.116142 0.86811,0.347244 0.235433,0.227559 0.354724,0.517323 0.354724,0.864173 0,0.33189 -0.119291,0.613386 -0.354724,0.845276 -0.238976,0.235039 -0.52874,0.351181 -0.86811,0.351181l0 -0.000393701zm0.906693 14.5138l-1.85591 0 0 -11.574 1.85591 0 0 11.574z"/>
  <path id="_12345678910111213" class="fil2" d="M287.258 261.109l-4.61417 11.574 -1.81732 0 -4.38661 -11.574 2.03307 0 2.94016 8.41063c0.219685,0.617323 0.354724,1.15354 0.409055,1.61654l0.042126 0c0.0775591,-0.582677 0.19685,-1.10709 0.362992,-1.57441l3.07441 -8.45276 1.9563 0z"/>
  <path id="_1234567891011121314" class="fil2" d="M298.411 267.359l-8.17126 0c0.0311024,1.28858 0.377953,2.28386 1.04173,2.98583 0.663386,0.698425 1.57402,1.04961 2.73543,1.04961 1.30433,0 2.5,-0.428346 3.59173,-1.28858l0 1.74016c-1.01457,0.740551 -2.36102,1.10709 -4.0315,1.10709 -1.63583,0 -2.92087,-0.524803 -3.85433,-1.57441 -0.937402,-1.05315 -1.40472,-2.53071 -1.40472,-4.43661 0,-1.80157 0.513386,-3.26772 1.53189,-4.40197 1.02244,-1.13425 2.2878,-1.70157 3.80433,-1.70157 1.51614,0 2.68504,0.490157 3.51457,1.47008 0.829134,0.975984 1.24213,2.33819 1.24213,4.07756l0 0.972441 0 0.000393701zm-1.89803 -1.57047c-0.00787402,-1.0689 -0.266142,-1.90197 -0.771654,-2.5 -0.509449,-0.594094 -1.21496,-0.891339 -2.12205,-0.891339 -0.872047,0 -1.61654,0.312598 -2.22598,0.937402 -0.609449,0.625197 -0.987402,1.44291 -1.13031,2.45354l6.25 0 0 0.000393701z"/>
  <polygon id="_123456789101112131415" class="fil2" points="184.705,287.267 184.705,288.895 183.123,288.895 183.123,301.846 184.705,301.846 184.705,303.474 179.643,303.474 179.643,301.846 181.225,301.846 181.225,288.895 179.643,288.895 179.643,287.267 "/>
  <path id="_12345678910111213141516" class="fil2" d="M203.571 303.474l-1.85157 0 0 -6.64724c0,-1.28071 -0.200394,-2.20669 -0.594094,-2.77756 -0.397244,-0.574803 -1.06102,-0.860236 -1.99488,-0.860236 -0.790551,0 -1.46575,0.362598 -2.01772,1.08425 -0.555118,0.725197 -0.833465,1.58898 -0.833465,2.6l0 6.60118 -1.85157 0 0 -6.87087c0,-2.27638 -0.879528,-3.41457 -2.63504,-3.41457 -0.814173,0 -1.48189,0.33937 -2.01024,1.02244 -0.528346,0.682677 -0.790551,1.57047 -0.790551,2.66181l0 6.60118 -1.85591 0 0 -11.574 1.85591 0 0 1.83228 0.0464567 0c0.817717,-1.40433 2.01772,-2.10276 3.59173,-2.10276 0.790945,0 1.4815,0.220079 2.06772,0.659843 0.590551,0.440157 0.991732,1.0189 1.21142,1.73583 0.856693,-1.59685 2.1374,-2.39567 3.84252,-2.39567 2.54646,0 3.81929,1.57047 3.81929,4.71102l0 7.13346 0 -0.000393701z"/>
  <path id="_1234567891011121314151617" class="fil2" d="M215.36 303.474l-1.85591 0 0 -1.80945 -0.042126 0c-0.806693,1.38898 -1.99488,2.07953 -3.56102,2.07953 -1.15354,0 -2.05669,-0.305118 -2.70827,-0.914567 -0.651969,-0.609449 -0.975984,-1.41969 -0.975984,-2.43071 0,-2.16063 1.27283,-3.42205 3.81929,-3.77283l3.46811 -0.485827c0,-1.96772 -0.794882,-2.95157 -2.38425,-2.95157 -1.39291,0 -2.65039,0.474409 -3.77283,1.42362l0 -1.89803c1.13819,-0.725591 2.44567,-1.08425 3.9311,-1.08425 2.71969,0 4.08189,1.43898 4.08189,4.31732l0 7.52717 0 -0.000393701zm-1.85551 -5.8563l-2.78937 0.385433c-0.859843,0.119685 -1.50827,0.33189 -1.94449,0.640551 -0.435827,0.304724 -0.655906,0.844882 -0.655906,1.62047 0,0.563386 0.200394,1.02598 0.605906,1.38504 0.401181,0.358661 0.937402,0.536614 1.60866,0.536614 0.91811,0 1.67795,-0.320472 2.27598,-0.964567 0.601969,-0.644094 0.898819,-1.4622 0.898819,-2.45l0 -1.15315 0.000393701 -0.000393701z"/>
  <path id="_123456789101112131415161718" class="fil2" d="M228.732 302.548c0,4.24803 -2.03346,6.37362 -6.10315,6.37362 -1.4311,0 -2.6811,-0.269685 -3.75394,-0.814173l0 -1.85157c1.30433,0.72126 2.54646,1.08386 3.73071,1.08386 2.84724,0 4.27087,-1.51614 4.27087,-4.54488l0 -1.26535 -0.042126 0c-0.883858,1.47756 -2.21102,2.21457 -3.98189,2.21457 -1.43898,0 -2.59646,-0.513386 -3.47205,-1.54331 -0.879528,-1.02638 -1.31969,-2.40787 -1.31969,-4.13976 0,-1.96772 0.474803,-3.53031 1.41969,-4.69173 0.945276,-1.16102 2.24173,-1.74016 3.8811,-1.74016 1.5626,0 2.71614,0.625197 3.47244,1.8752l0.042126 0 0 -1.60472 1.85591 0 0 10.648 0 0.000393701zm-1.85591 -4.30551l0 -1.70945c0,-0.91811 -0.308268,-1.70512 -0.929528,-2.36102 -0.62126,-0.655906 -1.39646,-0.983858 -2.32244,-0.983858 -1.14567,0 -2.04488,0.416535 -2.69291,1.25 -0.648425,0.833465 -0.972441,1.99843 -0.972441,3.49528 0,1.28858 0.312598,2.32244 0.933465,3.09409 0.62126,0.77126 1.44685,1.15748 2.46929,1.15748 1.04173,0 1.88661,-0.370472 2.53858,-1.10709 0.651969,-0.740551 0.975984,-1.68583 0.975984,-2.83543z"/>
  <path id="_12345678910111213141516171819" class="fil2" d="M241.784 298.15l-8.17126 0c0.0311024,1.28858 0.377953,2.28386 1.04173,2.98583 0.663386,0.698425 1.57402,1.04961 2.73543,1.04961 1.30433,0 2.5,-0.428346 3.59173,-1.28858l0 1.74016c-1.01457,0.740551 -2.36102,1.10709 -4.0315,1.10709 -1.63583,0 -2.92087,-0.524803 -3.85433,-1.57441 -0.937402,-1.05315 -1.40472,-2.53071 -1.40472,-4.43661 0,-1.80157 0.513386,-3.26772 1.53189,-4.40197 1.02244,-1.13425 2.2878,-1.70157 3.80433,-1.70157 1.51614,0 2.68504,0.490157 3.51457,1.47008 0.829134,0.975984 1.24213,2.33819 1.24213,4.07756l0 0.972441 0 0.000393701zm-1.89803 -1.57047c-0.00787402,-1.0689 -0.266142,-1.90197 -0.771654,-2.5 -0.509449,-0.594094 -1.21496,-0.891339 -2.12205,-0.891339 -0.872047,0 -1.61654,0.312598 -2.22598,0.937402 -0.609449,0.625197 -0.987402,1.44291 -1.13031,2.45354l6.25 0 0 0.000393701z"/>
 </g>
</svg>
